<mxfile host="app.diagrams.net" modified="2021-11-23T14:03:04.430Z" agent="5.0 (X11; Linux x86_64) AppleWebKit/537.36 (KHTML, like Gecko) Chrome/95.0.4638.54 Safari/537.36" etag="XfBGcu1zs8oleorE8OZT" version="15.7.3" type="github">
  <diagram id="f4kXxPAZHq8HEQr6WA96" name="Page-1">
    <mxGraphModel dx="1990" dy="1137" grid="1" gridSize="10" guides="1" tooltips="1" connect="1" arrows="1" fold="1" page="1" pageScale="1" pageWidth="850" pageHeight="1100" math="0" shadow="0">
      <root>
        <mxCell id="0" />
        <mxCell id="1" parent="0" />
        <mxCell id="ti8HzYMtxsDq99cQNuae-32" style="edgeStyle=orthogonalEdgeStyle;rounded=0;orthogonalLoop=1;jettySize=auto;html=1;entryX=0;entryY=0.5;entryDx=0;entryDy=0;" parent="1" source="ti8HzYMtxsDq99cQNuae-3" target="ti8HzYMtxsDq99cQNuae-8" edge="1">
          <mxGeometry relative="1" as="geometry">
            <Array as="points">
              <mxPoint x="150" y="490" />
            </Array>
          </mxGeometry>
        </mxCell>
        <mxCell id="ti8HzYMtxsDq99cQNuae-3" value="Navigate to Market&lt;br&gt;Sell Resource" style="rounded=0;whiteSpace=wrap;html=1;" parent="1" vertex="1">
          <mxGeometry x="210" y="670" width="120" height="60" as="geometry" />
        </mxCell>
        <mxCell id="ti8HzYMtxsDq99cQNuae-16" style="edgeStyle=orthogonalEdgeStyle;rounded=0;orthogonalLoop=1;jettySize=auto;html=1;entryX=1;entryY=0.5;entryDx=0;entryDy=0;" parent="1" source="ti8HzYMtxsDq99cQNuae-4" target="ti8HzYMtxsDq99cQNuae-15" edge="1">
          <mxGeometry relative="1" as="geometry">
            <Array as="points">
              <mxPoint x="440" y="630" />
              <mxPoint x="440" y="630" />
            </Array>
          </mxGeometry>
        </mxCell>
        <mxCell id="ti8HzYMtxsDq99cQNuae-4" value="Navigate/Search" style="rounded=0;whiteSpace=wrap;html=1;" parent="1" vertex="1">
          <mxGeometry x="470" y="600" width="120" height="60" as="geometry" />
        </mxCell>
        <mxCell id="ti8HzYMtxsDq99cQNuae-13" style="edgeStyle=orthogonalEdgeStyle;rounded=0;orthogonalLoop=1;jettySize=auto;html=1;entryX=0;entryY=0.5;entryDx=0;entryDy=0;" parent="1" source="ti8HzYMtxsDq99cQNuae-5" target="ti8HzYMtxsDq99cQNuae-12" edge="1">
          <mxGeometry relative="1" as="geometry" />
        </mxCell>
        <mxCell id="ti8HzYMtxsDq99cQNuae-5" value="&lt;b&gt;Foraging Strategy&lt;/b&gt;&lt;br&gt;Collect or Not?&lt;br&gt;Depends on distance, resource type (price). how rich the robot is, etc" style="rounded=0;whiteSpace=wrap;html=1;" parent="1" vertex="1">
          <mxGeometry x="318" y="440" width="120" height="100" as="geometry" />
        </mxCell>
        <mxCell id="ti8HzYMtxsDq99cQNuae-10" value="Yes" style="edgeStyle=orthogonalEdgeStyle;rounded=0;orthogonalLoop=1;jettySize=auto;html=1;exitX=1;exitY=0.5;exitDx=0;exitDy=0;entryX=0;entryY=0.5;entryDx=0;entryDy=0;" parent="1" source="ti8HzYMtxsDq99cQNuae-8" target="ti8HzYMtxsDq99cQNuae-5" edge="1">
          <mxGeometry relative="1" as="geometry" />
        </mxCell>
        <mxCell id="ti8HzYMtxsDq99cQNuae-30" value="no" style="edgeStyle=orthogonalEdgeStyle;rounded=0;orthogonalLoop=1;jettySize=auto;html=1;entryX=0;entryY=0.5;entryDx=0;entryDy=0;" parent="1" source="ti8HzYMtxsDq99cQNuae-8" target="ti8HzYMtxsDq99cQNuae-28" edge="1">
          <mxGeometry relative="1" as="geometry">
            <Array as="points">
              <mxPoint x="210" y="343" />
            </Array>
          </mxGeometry>
        </mxCell>
        <mxCell id="ti8HzYMtxsDq99cQNuae-31" value="no = LIMIT" style="edgeStyle=orthogonalEdgeStyle;rounded=0;orthogonalLoop=1;jettySize=auto;html=1;entryX=0;entryY=0.5;entryDx=0;entryDy=0;" parent="1" source="ti8HzYMtxsDq99cQNuae-8" target="ti8HzYMtxsDq99cQNuae-29" edge="1">
          <mxGeometry relative="1" as="geometry">
            <Array as="points">
              <mxPoint x="210" y="405" />
            </Array>
            <mxPoint x="550" y="400" as="targetPoint" />
          </mxGeometry>
        </mxCell>
        <mxCell id="ti8HzYMtxsDq99cQNuae-8" value="Knows Location?" style="rhombus;whiteSpace=wrap;html=1;" parent="1" vertex="1">
          <mxGeometry x="170" y="450" width="80" height="80" as="geometry" />
        </mxCell>
        <mxCell id="ti8HzYMtxsDq99cQNuae-14" value="yes" style="edgeStyle=orthogonalEdgeStyle;rounded=0;orthogonalLoop=1;jettySize=auto;html=1;" parent="1" source="ti8HzYMtxsDq99cQNuae-12" edge="1">
          <mxGeometry relative="1" as="geometry">
            <mxPoint x="530" y="600" as="targetPoint" />
          </mxGeometry>
        </mxCell>
        <mxCell id="ti8HzYMtxsDq99cQNuae-24" value="no" style="edgeStyle=orthogonalEdgeStyle;rounded=0;orthogonalLoop=1;jettySize=auto;html=1;" parent="1" source="ti8HzYMtxsDq99cQNuae-12" target="ti8HzYMtxsDq99cQNuae-23" edge="1">
          <mxGeometry relative="1" as="geometry" />
        </mxCell>
        <mxCell id="ti8HzYMtxsDq99cQNuae-12" value="Collect?" style="rhombus;whiteSpace=wrap;html=1;" parent="1" vertex="1">
          <mxGeometry x="490" y="450" width="80" height="80" as="geometry" />
        </mxCell>
        <mxCell id="ti8HzYMtxsDq99cQNuae-17" value="no" style="edgeStyle=orthogonalEdgeStyle;rounded=0;orthogonalLoop=1;jettySize=auto;html=1;entryX=0.5;entryY=1;entryDx=0;entryDy=0;" parent="1" source="ti8HzYMtxsDq99cQNuae-15" target="ti8HzYMtxsDq99cQNuae-4" edge="1">
          <mxGeometry relative="1" as="geometry">
            <Array as="points">
              <mxPoint x="395" y="700" />
              <mxPoint x="530" y="700" />
            </Array>
          </mxGeometry>
        </mxCell>
        <mxCell id="ti8HzYMtxsDq99cQNuae-19" value="no = LIMIT" style="edgeStyle=orthogonalEdgeStyle;rounded=0;orthogonalLoop=1;jettySize=auto;html=1;entryX=0.5;entryY=1;entryDx=0;entryDy=0;" parent="1" source="ti8HzYMtxsDq99cQNuae-15" target="ti8HzYMtxsDq99cQNuae-8" edge="1">
          <mxGeometry relative="1" as="geometry" />
        </mxCell>
        <mxCell id="ti8HzYMtxsDq99cQNuae-22" value="yes" style="edgeStyle=orthogonalEdgeStyle;rounded=0;orthogonalLoop=1;jettySize=auto;html=1;entryX=1;entryY=0.5;entryDx=0;entryDy=0;" parent="1" source="ti8HzYMtxsDq99cQNuae-15" target="ti8HzYMtxsDq99cQNuae-3" edge="1">
          <mxGeometry relative="1" as="geometry">
            <Array as="points">
              <mxPoint x="395" y="700" />
            </Array>
          </mxGeometry>
        </mxCell>
        <mxCell id="ti8HzYMtxsDq99cQNuae-15" value="Found?" style="rhombus;whiteSpace=wrap;html=1;" parent="1" vertex="1">
          <mxGeometry x="355" y="590" width="80" height="80" as="geometry" />
        </mxCell>
        <mxCell id="ti8HzYMtxsDq99cQNuae-23" value="&lt;b&gt;Hiring Strategy&lt;/b&gt;&lt;br&gt;Max pay?&lt;br&gt;Profit = Price - Pay" style="rounded=0;whiteSpace=wrap;html=1;" parent="1" vertex="1">
          <mxGeometry x="619" y="460" width="120" height="60" as="geometry" />
        </mxCell>
        <mxCell id="ti8HzYMtxsDq99cQNuae-34" style="edgeStyle=orthogonalEdgeStyle;rounded=0;orthogonalLoop=1;jettySize=auto;html=1;entryX=0;entryY=0.5;entryDx=0;entryDy=0;" parent="1" source="ti8HzYMtxsDq99cQNuae-28" target="ti8HzYMtxsDq99cQNuae-8" edge="1">
          <mxGeometry relative="1" as="geometry">
            <Array as="points">
              <mxPoint x="384" y="300" />
              <mxPoint x="150" y="300" />
              <mxPoint x="150" y="490" />
            </Array>
          </mxGeometry>
        </mxCell>
        <mxCell id="ti8HzYMtxsDq99cQNuae-28" value="&lt;b&gt;Exploration Strategy&lt;/b&gt;&lt;br&gt;Random-walk" style="rounded=0;whiteSpace=wrap;html=1;" parent="1" vertex="1">
          <mxGeometry x="318" y="308" width="132" height="70" as="geometry" />
        </mxCell>
        <mxCell id="ti8HzYMtxsDq99cQNuae-35" style="edgeStyle=orthogonalEdgeStyle;rounded=0;orthogonalLoop=1;jettySize=auto;html=1;entryX=1;entryY=0.5;entryDx=0;entryDy=0;" parent="1" source="ti8HzYMtxsDq99cQNuae-29" target="ti8HzYMtxsDq99cQNuae-4" edge="1">
          <mxGeometry relative="1" as="geometry">
            <Array as="points">
              <mxPoint x="760" y="400" />
              <mxPoint x="760" y="630" />
            </Array>
          </mxGeometry>
        </mxCell>
        <mxCell id="ti8HzYMtxsDq99cQNuae-29" value="&lt;b&gt;Employment Strategy&lt;/b&gt;&lt;br&gt;Profit = Pay - Cost" style="rounded=0;whiteSpace=wrap;html=1;" parent="1" vertex="1">
          <mxGeometry x="613" y="370" width="132" height="70" as="geometry" />
        </mxCell>
        <mxCell id="LJaiE_lo2-JKov1_N9Zu-3" value="yes" style="edgeStyle=orthogonalEdgeStyle;rounded=0;orthogonalLoop=1;jettySize=auto;html=1;" parent="1" source="LJaiE_lo2-JKov1_N9Zu-2" edge="1">
          <mxGeometry relative="1" as="geometry">
            <mxPoint x="390" y="1067" as="targetPoint" />
          </mxGeometry>
        </mxCell>
        <mxCell id="LJaiE_lo2-JKov1_N9Zu-32" value="" style="edgeStyle=orthogonalEdgeStyle;rounded=0;orthogonalLoop=1;jettySize=auto;html=1;fontSize=19;" parent="1" source="LJaiE_lo2-JKov1_N9Zu-2" target="LJaiE_lo2-JKov1_N9Zu-21" edge="1">
          <mxGeometry relative="1" as="geometry" />
        </mxCell>
        <mxCell id="LJaiE_lo2-JKov1_N9Zu-2" value="Can I afford exploring?" style="rhombus;whiteSpace=wrap;html=1;" parent="1" vertex="1">
          <mxGeometry x="224" y="1022" width="92" height="90" as="geometry" />
        </mxCell>
        <mxCell id="LJaiE_lo2-JKov1_N9Zu-8" value="" style="edgeStyle=orthogonalEdgeStyle;rounded=0;orthogonalLoop=1;jettySize=auto;html=1;" parent="1" source="LJaiE_lo2-JKov1_N9Zu-4" target="LJaiE_lo2-JKov1_N9Zu-7" edge="1">
          <mxGeometry relative="1" as="geometry" />
        </mxCell>
        <mxCell id="LJaiE_lo2-JKov1_N9Zu-14" value="" style="edgeStyle=orthogonalEdgeStyle;rounded=0;orthogonalLoop=1;jettySize=auto;html=1;" parent="1" source="LJaiE_lo2-JKov1_N9Zu-4" target="LJaiE_lo2-JKov1_N9Zu-7" edge="1">
          <mxGeometry relative="1" as="geometry" />
        </mxCell>
        <mxCell id="LJaiE_lo2-JKov1_N9Zu-4" value="&lt;b&gt;Explore within range_max&lt;/b&gt;&lt;br&gt;range_max is proportional to amount of money" style="rounded=0;whiteSpace=wrap;html=1;" parent="1" vertex="1">
          <mxGeometry x="380" y="1037" width="160" height="60" as="geometry" />
        </mxCell>
        <mxCell id="LJaiE_lo2-JKov1_N9Zu-11" value="sell price &amp;gt; exploration cost" style="edgeStyle=orthogonalEdgeStyle;rounded=0;orthogonalLoop=1;jettySize=auto;html=1;" parent="1" source="LJaiE_lo2-JKov1_N9Zu-7" target="LJaiE_lo2-JKov1_N9Zu-10" edge="1">
          <mxGeometry relative="1" as="geometry" />
        </mxCell>
        <mxCell id="LJaiE_lo2-JKov1_N9Zu-13" value="sell price &amp;lt; exploration cost" style="edgeStyle=orthogonalEdgeStyle;rounded=0;orthogonalLoop=1;jettySize=auto;html=1;entryX=0.5;entryY=0;entryDx=0;entryDy=0;" parent="1" edge="1">
          <mxGeometry relative="1" as="geometry">
            <mxPoint x="640" y="1028" as="sourcePoint" />
            <mxPoint x="270" y="1023" as="targetPoint" />
            <Array as="points">
              <mxPoint x="640" y="1000" />
              <mxPoint x="270" y="1000" />
            </Array>
          </mxGeometry>
        </mxCell>
        <mxCell id="LJaiE_lo2-JKov1_N9Zu-7" value="Resource Found?" style="rhombus;whiteSpace=wrap;html=1;" parent="1" vertex="1">
          <mxGeometry x="600" y="1027" width="80" height="80" as="geometry" />
        </mxCell>
        <mxCell id="LJaiE_lo2-JKov1_N9Zu-10" value="Return to Market&lt;br&gt;Recruit at Market" style="whiteSpace=wrap;html=1;fontStyle=1" parent="1" vertex="1">
          <mxGeometry x="580" y="1160" width="120" height="60" as="geometry" />
        </mxCell>
        <mxCell id="LJaiE_lo2-JKov1_N9Zu-21" value="Return to Market&lt;br&gt;Wait to be Recruited" style="whiteSpace=wrap;html=1;fontStyle=1" parent="1" vertex="1">
          <mxGeometry x="210" y="1152" width="120" height="60" as="geometry" />
        </mxCell>
        <mxCell id="LJaiE_lo2-JKov1_N9Zu-31" value="&lt;font style=&quot;font-size: 19px&quot;&gt;Recruit or Explorer Decision Process&lt;/font&gt;" style="text;html=1;strokeColor=none;fillColor=none;align=center;verticalAlign=middle;whiteSpace=wrap;rounded=0;fontStyle=1" parent="1" vertex="1">
          <mxGeometry x="275" y="950" width="370" height="30" as="geometry" />
        </mxCell>
        <mxCell id="LJaiE_lo2-JKov1_N9Zu-36" value="&lt;span style=&quot;font-size: 19px&quot;&gt;Explorer&lt;/span&gt;" style="text;html=1;strokeColor=none;fillColor=none;align=center;verticalAlign=middle;whiteSpace=wrap;rounded=0;fontStyle=1" parent="1" vertex="1">
          <mxGeometry x="122" y="1271" width="240" height="30" as="geometry" />
        </mxCell>
        <mxCell id="dU1hTxRi3ePegOtzuOl6-2" value="" style="edgeStyle=orthogonalEdgeStyle;rounded=0;orthogonalLoop=1;jettySize=auto;html=1;" edge="1" parent="1" source="LJaiE_lo2-JKov1_N9Zu-37" target="dU1hTxRi3ePegOtzuOl6-1">
          <mxGeometry relative="1" as="geometry" />
        </mxCell>
        <mxCell id="LJaiE_lo2-JKov1_N9Zu-37" value="&lt;b&gt;Set High Price&lt;/b&gt;&lt;br&gt;Price = quantity * quality" style="rounded=0;whiteSpace=wrap;html=1;" parent="1" vertex="1">
          <mxGeometry x="160" y="1310" width="160" height="60" as="geometry" />
        </mxCell>
        <mxCell id="dU1hTxRi3ePegOtzuOl6-6" value="" style="edgeStyle=orthogonalEdgeStyle;rounded=0;orthogonalLoop=1;jettySize=auto;html=1;" edge="1" parent="1" source="dU1hTxRi3ePegOtzuOl6-1" target="dU1hTxRi3ePegOtzuOl6-5">
          <mxGeometry relative="1" as="geometry" />
        </mxCell>
        <mxCell id="dU1hTxRi3ePegOtzuOl6-1" value="Not sold after X seconds?" style="rhombus;whiteSpace=wrap;html=1;rounded=0;" vertex="1" parent="1">
          <mxGeometry x="180" y="1410" width="120" height="80" as="geometry" />
        </mxCell>
        <mxCell id="dU1hTxRi3ePegOtzuOl6-7" style="edgeStyle=orthogonalEdgeStyle;rounded=0;orthogonalLoop=1;jettySize=auto;html=1;entryX=0;entryY=0.5;entryDx=0;entryDy=0;" edge="1" parent="1" source="dU1hTxRi3ePegOtzuOl6-5" target="dU1hTxRi3ePegOtzuOl6-1">
          <mxGeometry relative="1" as="geometry">
            <Array as="points">
              <mxPoint x="150" y="1540" />
              <mxPoint x="150" y="1450" />
            </Array>
          </mxGeometry>
        </mxCell>
        <mxCell id="dU1hTxRi3ePegOtzuOl6-18" style="edgeStyle=orthogonalEdgeStyle;rounded=0;orthogonalLoop=1;jettySize=auto;html=1;entryX=0;entryY=0.5;entryDx=0;entryDy=0;" edge="1" parent="1" source="dU1hTxRi3ePegOtzuOl6-5" target="dU1hTxRi3ePegOtzuOl6-17">
          <mxGeometry relative="1" as="geometry" />
        </mxCell>
        <mxCell id="dU1hTxRi3ePegOtzuOl6-5" value="Reduce Price&lt;br&gt;Price = Kr * Price" style="whiteSpace=wrap;html=1;rounded=0;" vertex="1" parent="1">
          <mxGeometry x="180" y="1510" width="120" height="60" as="geometry" />
        </mxCell>
        <mxCell id="dU1hTxRi3ePegOtzuOl6-8" value="&lt;span style=&quot;font-size: 19px&quot;&gt;Recruit&lt;/span&gt;" style="text;html=1;strokeColor=none;fillColor=none;align=center;verticalAlign=middle;whiteSpace=wrap;rounded=0;fontStyle=1" vertex="1" parent="1">
          <mxGeometry x="428" y="1266" width="240" height="30" as="geometry" />
        </mxCell>
        <mxCell id="dU1hTxRi3ePegOtzuOl6-9" value="" style="edgeStyle=orthogonalEdgeStyle;rounded=0;orthogonalLoop=1;jettySize=auto;html=1;" edge="1" parent="1" source="dU1hTxRi3ePegOtzuOl6-10" target="dU1hTxRi3ePegOtzuOl6-12">
          <mxGeometry relative="1" as="geometry" />
        </mxCell>
        <mxCell id="dU1hTxRi3ePegOtzuOl6-10" value="&lt;b&gt;Set Low Price&lt;/b&gt;&lt;br&gt;Price = a * quantity * quality" style="rounded=0;whiteSpace=wrap;html=1;" vertex="1" parent="1">
          <mxGeometry x="470" y="1310" width="160" height="60" as="geometry" />
        </mxCell>
        <mxCell id="dU1hTxRi3ePegOtzuOl6-11" value="" style="edgeStyle=orthogonalEdgeStyle;rounded=0;orthogonalLoop=1;jettySize=auto;html=1;" edge="1" parent="1" source="dU1hTxRi3ePegOtzuOl6-12" target="dU1hTxRi3ePegOtzuOl6-14">
          <mxGeometry relative="1" as="geometry" />
        </mxCell>
        <mxCell id="dU1hTxRi3ePegOtzuOl6-12" value="Not sold after X seconds?" style="rhombus;whiteSpace=wrap;html=1;rounded=0;" vertex="1" parent="1">
          <mxGeometry x="490" y="1410" width="120" height="80" as="geometry" />
        </mxCell>
        <mxCell id="dU1hTxRi3ePegOtzuOl6-15" style="edgeStyle=orthogonalEdgeStyle;rounded=0;orthogonalLoop=1;jettySize=auto;html=1;entryX=1;entryY=0.5;entryDx=0;entryDy=0;" edge="1" parent="1" source="dU1hTxRi3ePegOtzuOl6-14" target="dU1hTxRi3ePegOtzuOl6-12">
          <mxGeometry relative="1" as="geometry">
            <Array as="points">
              <mxPoint x="650" y="1540" />
              <mxPoint x="650" y="1450" />
            </Array>
          </mxGeometry>
        </mxCell>
        <mxCell id="dU1hTxRi3ePegOtzuOl6-19" value="" style="edgeStyle=orthogonalEdgeStyle;rounded=0;orthogonalLoop=1;jettySize=auto;html=1;" edge="1" parent="1" source="dU1hTxRi3ePegOtzuOl6-14" target="dU1hTxRi3ePegOtzuOl6-17">
          <mxGeometry relative="1" as="geometry" />
        </mxCell>
        <mxCell id="dU1hTxRi3ePegOtzuOl6-14" value="Increase Price&lt;br&gt;Price = Ki * Price" style="whiteSpace=wrap;html=1;rounded=0;" vertex="1" parent="1">
          <mxGeometry x="490" y="1510" width="120" height="60" as="geometry" />
        </mxCell>
        <mxCell id="dU1hTxRi3ePegOtzuOl6-17" value="Recruited?" style="rhombus;whiteSpace=wrap;html=1;rounded=0;" vertex="1" parent="1">
          <mxGeometry x="347.5" y="1560" width="95" height="80" as="geometry" />
        </mxCell>
      </root>
    </mxGraphModel>
  </diagram>
</mxfile>
